<svg id="undraw_Modern_life_re_8pdp" xmlns="http://www.w3.org/2000/svg" width="351.683" height="221.039" viewBox="0 0 351.683 221.039">
  <defs>
    <style>
      .cls-1 {
        fill: #9ea0a4;
      }

      .cls-2 {
        fill: #e6e6e6;
      }

      .cls-3 {
        fill: #0956c6;
      }

      .cls-4 {
        fill: #ffb8b8;
      }

      .cls-5 {
        fill: #fff;
      }

      .cls-6 {
        fill: #3f3d56;
      }

      .cls-7 {
        fill: #2f2e41;
      }

      .cls-8 {
        fill: #ccc;
      }
    </style>
  </defs>
  <path id="Path_12" data-name="Path 12" class="cls-1" d="M868.78,260.684c0-26.269-23.523-88.606-52.539-88.606S763.7,234.414,763.7,260.684c0,26.287,23.523,47.6,52.539,47.6S868.78,286.971,868.78,260.684Z" transform="translate(-519.486 -166.721)"/>
  <path id="Path_13" data-name="Path 13" class="cls-2" d="M888.894,441.383a.413.413,0,0,0,.432-.391V277a.434.434,0,0,0-.864,0V440.993A.413.413,0,0,0,888.894,441.383Z" transform="translate(-592.136 -231.701)"/>
  <path id="Path_14" data-name="Path 14" class="cls-2" d="M888.894,329.1a.455.455,0,0,0,.306-.115l20.795-18.826a.366.366,0,0,0,0-.553.464.464,0,0,0-.611,0l-20.795,18.826a.365.365,0,0,0-.094.426A.434.434,0,0,0,888.894,329.1Z" transform="translate(-592.136 -252.14)"/>
  <path id="Path_15" data-name="Path 15" class="cls-2" d="M840.341,394.369a.435.435,0,0,0,.4-.241.365.365,0,0,0-.094-.426l-34.825-31.528a.464.464,0,0,0-.611,0,.366.366,0,0,0,0,.553l34.825,31.528a.454.454,0,0,0,.306.115Z" transform="translate(-543.584 -284.815)"/>
  <path id="Path_16" data-name="Path 16" class="cls-3" d="M872.68,699.238c-.075.053-.154.1-.23.151h-64.41c-1.262-4.629-1.708-9.264.177-13.288,2.686-5.735,10.635-9.315,16.955-6.852a9.558,9.558,0,0,1,3.79,2.715,14.36,14.36,0,0,1,12.014-7.017c6.407,0,11.733,4.747,13.472,10.226,2.8-4.278,8.328-7.267,13.732-5.981C877.219,681.343,880.075,694.064,872.68,699.238Z" transform="translate(-544.667 -479.31)"/>
  <path id="Path_17" data-name="Path 17" class="cls-4" d="M563.64,449.068a4.125,4.125,0,0,1,2.733,2.058,3.482,3.482,0,0,1,.013,3.22l10.744,9.386-7.568,1.537-9.042-9.149a3.668,3.668,0,0,1-1.9-4.782,4.345,4.345,0,0,1,5.018-2.27Z" transform="translate(-399.885 -338.819)"/>
  <path id="Path_18" data-name="Path 18" class="cls-3" d="M587.926,470.486l-13.254-11.264a1.594,1.594,0,0,1-.051-2.438l2.706-2.483a2.029,2.029,0,0,1,2.479-.157l11.107,7.69,6.93-15.225a5.045,5.045,0,0,1,2.991-2.632,5.743,5.743,0,0,1,4.166.177h0a4.626,4.626,0,0,1,2.87,5.035c-1.258,6.925-8.875,16.08-13.3,20.921a4.89,4.89,0,0,1-5.1,1.241A4.661,4.661,0,0,1,587.926,470.486Z" transform="translate(-409.064 -335.545)"/>
  <path id="Path_19" data-name="Path 19" class="cls-5" d="M575.616,462.248l-9.758-12.822a.714.714,0,0,1,.214-1.053l.392-.245a.891.891,0,0,1,1.162.194l9.758,12.822a.713.713,0,0,1-.214,1.053l-.392.245a.892.892,0,0,1-1.162-.194Z" transform="translate(-404.191 -338.234)"/>
  <path id="Path_20" data-name="Path 20" class="cls-6" d="M571.04,462.832l-8.1-10.641a1.963,1.963,0,0,1,.587-2.895l.825-.515,10.706,14.068-.825.516h0a2.453,2.453,0,0,1-3.2-.532Z" transform="translate(-402.342 -338.722)"/>
  <path id="Path_21" data-name="Path 21" class="cls-4" d="M399.148,540.375l-5.087-.532.674-17.942,6.678.7Z" transform="translate(-229.471 -324.42)"/>
  <path id="Path_22" data-name="Path 22" class="cls-7" d="M564.116,729.214l-16.4-1.715.024-.188c.407-3.194,3.595-5.485,7.121-5.116h0l10.018,1.047Z" transform="translate(-393.711 -508.655)"/>
  <path id="Path_23" data-name="Path 23" class="cls-4" d="M529.668,533.633,524.776,535l-8.158-16.445,7.221-2.021Z" transform="translate(-300.839 -321.085)"/>
  <path id="Path_24" data-name="Path 24" class="cls-7" d="M710.875,720.637,695.1,725.051l-.062-.181c-1.048-3.072.852-6.332,4.243-7.281h0l9.635-2.7Z" transform="translate(-479.333 -504.141)"/>
  <path id="Path_25" data-name="Path 25" class="cls-7" d="M569.6,608.782a1.866,1.866,0,0,1-1.393-2.3L571.27,574.5a9.041,9.041,0,0,1,1.481-4.125l18.561-27.906,16.609,2.7.107.04c8.072,4.479,15.24,26.2,22.171,47.2,1.078,3.266,2.192,6.644,3.28,9.871a1.842,1.842,0,0,1-1.127,2.45l-5.029,1.918a2.188,2.188,0,0,1-2.643-.837l-25.855-42.881a.418.418,0,0,0-.322-.2.425.425,0,0,0-.358.126l-15,15.382-5.514,29.314-.022.064a2.157,2.157,0,0,1-2.469,1.078l-5.409.093h-.034Z" transform="translate(-405.599 -396.962)"/>
  <path id="Path_26" data-name="Path 26" class="cls-3" d="M616.157,471.706l-.105-.03-.032-.1c-.077-.233-7.669-23.507-.828-38.344l.007-.013c.2-.353,4.973-8.66,10.518-9.491l.148-.022,1.8,3.053c.566.515,10.322,9.691,5.894,25.464.4,1.293,5.785,19.05,2.855,21.7-.659.6-1.984.831-3.656.831C626.878,474.76,616.705,471.863,616.157,471.706Z" transform="translate(-431.342 -323.137)"/>
  <ellipse id="Ellipse_1" data-name="Ellipse 1" class="cls-7" cx="12.948" cy="11.73" rx="12.948" ry="11.73" transform="translate(180.283 74.224)"/>
  <ellipse id="Ellipse_2" data-name="Ellipse 2" class="cls-4" cx="10.259" cy="9.294" rx="10.259" ry="9.294" transform="translate(177.829 79.041)"/>
  <path id="Path_27" data-name="Path 27" class="cls-7" d="M618.064,377.947c-.936.3-2.083.566-2.82-.058a2.089,2.089,0,0,1-.165-2.542,11.056,11.056,0,0,0,1.282-2.443,3.6,3.6,0,0,0-1.523-3.443,11.757,11.757,0,0,0-3.716-1.694l-7.181-2.313c-1.778-.572-3.693-1.245-4.688-2.751-1.439-2.18-.123-5.3,2.237-6.568s5.343-1.035,7.89-.141a43.347,43.347,0,0,0,4.206,1.524c2.876.687,6.145.071,8.672,1.54a7,7,0,0,1,3.146,6.328,18.155,18.155,0,0,1-2.113,7,12.756,12.756,0,0,1-2.342,3.728,5.088,5.088,0,0,1-4.1,1.6Z" transform="translate(-423.375 -280.585)"/>
  <ellipse id="Ellipse_3" data-name="Ellipse 3" class="cls-7" cx="8.354" cy="7.568" rx="8.354" ry="7.568" transform="translate(195.737 72.71)"/>
  <path id="Path_28" data-name="Path 28" class="cls-5" d="M634.634,397.834a.786.786,0,0,1,.728-.751.837.837,0,0,1,.915.558.741.741,0,0,1-.495.894V400.2a.315.315,0,0,1-.626,0v-1.664a.76.76,0,0,1-.522-.7Z" transform="translate(-444.326 -306.583)"/>
  <path id="Path_29" data-name="Path 29" class="cls-4" d="M566.935,470.248a4.468,4.468,0,0,1,3.353,1.066,3.613,3.613,0,0,1,1.25,3.014l13.681,5.405-6.5,3.83-12-5.72a3.957,3.957,0,0,1-3.618-3.883A4.006,4.006,0,0,1,566.935,470.248Z" transform="translate(-402.673 -352.055)"/>
  <path id="Path_30" data-name="Path 30" class="cls-3" d="M603.957,469.394,587.2,463.021a1.8,1.8,0,0,1-1.021-.946,1.555,1.555,0,0,1,.035-1.323l1.581-3.182a1.951,1.951,0,0,1,2.263-.929l13.369,3.7.637-16.458a4.59,4.59,0,0,1,1.791-3.412,5.61,5.61,0,0,1,3.972-1.15h0a5.049,5.049,0,0,1,4.627,3.813c1.486,6.888-2.132,17.874-4.421,23.81a4.572,4.572,0,0,1-4.307,2.775A4.979,4.979,0,0,1,603.957,469.394Z" transform="translate(-416.034 -332.828)"/>
  <path id="Path_31" data-name="Path 31" class="cls-6" d="M455.418,740.836H690.987a.38.38,0,1,0,0-.757H455.418a.38.38,0,1,0,0,.757Z" transform="translate(-339.721 -519.797)"/>
  <path id="Path_32" data-name="Path 32" class="cls-1" d="M279.375,450.592c0-13.674-12.245-46.123-27.349-46.123s-27.349,32.448-27.349,46.123,12.244,24.776,27.349,24.776S279.375,464.276,279.375,450.592Z" transform="translate(-205.599 -311.178)"/>
  <path id="Path_33" data-name="Path 33" class="cls-2" d="M289.736,523.721a.287.287,0,0,0,.3-.272V427.986a.3.3,0,0,0-.6,0v95.463A.287.287,0,0,0,289.736,523.721Z" transform="translate(-243.309 -325.627)"/>
  <path id="Path_34" data-name="Path 34" class="cls-2" d="M289.737,463.205a.316.316,0,0,0,.212-.08l14.457-13.088a.254.254,0,0,0,0-.385.323.323,0,0,0-.425,0l-14.456,13.088a.253.253,0,0,0-.065.3.3.3,0,0,0,.277.168Z" transform="translate(-243.31 -339.215)"/>
  <path id="Path_35" data-name="Path 35" class="cls-2" d="M264.717,518.525a.3.3,0,0,0,.277-.168.254.254,0,0,0-.065-.3L246.985,502.2a.323.323,0,0,0-.425,0,.254.254,0,0,0,0,.385l17.945,15.864A.316.316,0,0,0,264.717,518.525Z" transform="translate(-218.291 -371.877)"/>
  <path id="Path_36" data-name="Path 36" class="cls-3" d="M278.465,672.523c-.052.036-.107.069-.16.1H233.527c-.877-3.218-1.187-6.44.123-9.238,1.867-3.987,7.394-6.476,11.787-4.763a6.645,6.645,0,0,1,2.635,1.888,9.983,9.983,0,0,1,8.352-4.878,10.162,10.162,0,0,1,9.366,7.109c1.946-2.974,5.79-5.052,9.547-4.158C281.621,660.082,283.606,668.926,278.465,672.523Z" transform="translate(-210.31 -467.306)"/>
  <path id="Path_37" data-name="Path 37" class="cls-8" d="M179.418,700.836h92.306a.38.38,0,1,0,0-.757H179.418a.38.38,0,1,0,0,.757Z" transform="translate(-179 -494.932)"/>
  <path id="Path_38" data-name="Path 38" class="cls-2" d="M352.282,237.383H206.931c-3.8,0-6.887-2.8-6.892-6.243V164.164c0-3.447,3.087-6.24,6.892-6.243H352.282c3.8,0,6.887,2.8,6.892,6.243v66.975c0,3.447-3.087,6.24-6.892,6.243Z" transform="translate(-191.251 -157.921)"/>
  <path id="Path_39" data-name="Path 39" class="cls-5" d="M357.6,240.3H215.589a3.4,3.4,0,0,1-3.55-3.216V173.137a3.4,3.4,0,0,1,3.55-3.216H357.6a3.4,3.4,0,0,1,3.55,3.216v63.948a3.4,3.4,0,0,1-3.55,3.216Z" transform="translate(-198.239 -165.38)"/>
  <path id="Path_40" data-name="Path 40" class="cls-2" d="M518.582,374.821l-15.971-14.469,20.476.469v12.31a2.364,2.364,0,0,1-1.629,2.209,2.921,2.921,0,0,1-1.027.188A2.742,2.742,0,0,1,518.582,374.821Z" transform="translate(-367.446 -283.754)"/>
  <path id="Path_41" data-name="Path 41" class="cls-8" d="M414.324,245.4h-71.84a3.042,3.042,0,1,1,0-6.054h71.84a3.042,3.042,0,1,1,0,6.054Z" transform="translate(-272.254 -208.534)"/>
  <path id="Path_42" data-name="Path 42" class="cls-8" d="M390.934,211.4h-48.45a3.042,3.042,0,1,1,0-6.054h48.45a3.042,3.042,0,1,1,0,6.054Z" transform="translate(-272.254 -187.399)"/>
  <ellipse id="Ellipse_4" data-name="Ellipse 4" class="cls-3" cx="10.442" cy="9.46" rx="10.442" ry="9.46" transform="translate(30.048 17.944)"/>
  <ellipse id="Ellipse_5" data-name="Ellipse 5" class="cls-2" cx="3.341" cy="3.027" rx="3.341" ry="3.027" transform="translate(116.589 55.464)"/>
  <ellipse id="Ellipse_6" data-name="Ellipse 6" class="cls-2" cx="3.341" cy="3.027" rx="3.341" ry="3.027" transform="translate(128.284 55.464)"/>
  <ellipse id="Ellipse_7" data-name="Ellipse 7" class="cls-2" cx="3.341" cy="3.027" rx="3.341" ry="3.027" transform="translate(139.979 55.464)"/>
</svg>
