<svg id="undraw_Hire_re_gn5j" xmlns="http://www.w3.org/2000/svg" width="380.121" height="152.894" viewBox="0 0 380.121 152.894">
  <defs>
    <style>
      .cls-1 {
        fill: #0956c6;
      }

      .cls-2 {
        fill: #e6e6e6;
      }

      .cls-3 {
        fill: #2f2e41;
      }

      .cls-4 {
        fill: #3f3d56;
      }

      .cls-5 {
        fill: #ffb8b8;
      }

      .cls-6 {
        fill: #a0616a;
      }

      .cls-7 {
        fill: #fff;
      }
    </style>
  </defs>
  <path id="Path_46" data-name="Path 46" class="cls-1" d="M312.776,348.307H158.781c-4.322,0-7.825-3.178-7.83-7.094V256.031a5.71,5.71,0,0,1,5.963-5.4H314.555a5.794,5.794,0,0,1,6.051,5.482v85.1C320.6,345.129,317.1,348.3,312.776,348.307Z" transform="translate(-150.951 -250.629)"/>
  <path id="Path_47" data-name="Path 47" class="cls-2" d="M312.776,348.307H158.781c-4.322,0-7.825-3.178-7.83-7.094V256.031a5.71,5.71,0,0,1,5.963-5.4H314.555a5.794,5.794,0,0,1,6.051,5.482v85.1C320.6,345.129,317.1,348.3,312.776,348.307ZM156.914,252.163a4.089,4.089,0,0,0-4.27,3.868v85.183a5.877,5.877,0,0,0,6.137,5.56H312.776a5.877,5.877,0,0,0,6.137-5.56v-85.1a4.173,4.173,0,0,0-4.358-3.948Z" transform="translate(-150.951 -250.629)"/>
  <path id="Path_48" data-name="Path 48" class="cls-2" d="M247.84,361.419H201.7a4.534,4.534,0,0,1-4.616-3.667,3.471,3.471,0,0,1-.04-.551V311.093a4.458,4.458,0,0,1,4.656-4.218H247.84a4.458,4.458,0,0,1,4.656,4.218V357.2A4.458,4.458,0,0,1,247.84,361.419ZM201.7,309.176a2.026,2.026,0,0,0-2.116,1.917V357.2a1.483,1.483,0,0,0,.016.236,2.062,2.062,0,0,0,2.1,1.681H247.84a2.027,2.027,0,0,0,2.116-1.917V311.093a2.027,2.027,0,0,0-2.116-1.917Z" transform="translate(-177.534 -285.308)"/>
  <path id="Path_49" data-name="Path 49" class="cls-2" d="M416.953,400.16H361.084a3.082,3.082,0,1,1,0-6.135h55.869a3.083,3.083,0,1,1,0,6.135Z" transform="translate(-270.192 -339.041)"/>
  <path id="Path_50" data-name="Path 50" class="cls-2" d="M391.558,366.16H361.084a3.082,3.082,0,1,1,0-6.135h30.474a3.082,3.082,0,1,1,0,6.135Z" transform="translate(-270.192 -318.078)"/>
  <path id="Path_51" data-name="Path 51" class="cls-3" d="M256.4,344.484c0,6.777-6.917,5.752-15.449,5.752S225.5,351.26,225.5,344.484s3.379-18.789,15.449-18.789C253.434,325.7,256.4,337.707,256.4,344.484Z" transform="translate(-193.946 -296.912)"/>
  <path id="Path_52" data-name="Path 52" class="cls-4" d="M289.818,400.675a3.574,3.574,0,0,0-1.676-1.856,3.475,3.475,0,0,0-.474-.219,4.134,4.134,0,0,0-4.122.7,3.248,3.248,0,0,0-.949,3.7l6.154,12.673h8.105Z" transform="translate(-226.743 -341.698)"/>
  <path id="Path_53" data-name="Path 53" class="cls-4" d="M221.512,405.683a4.2,4.2,0,0,0-3.133-.082,3.643,3.643,0,0,0-2.153,2.064L210.5,419.878a3.659,3.659,0,0,0,.9.111h7.191l4.859-10A3.347,3.347,0,0,0,221.512,405.683Z" transform="translate(-185.293 -346.016)"/>
  <ellipse id="Ellipse_8" data-name="Ellipse 8" class="cls-5" cx="10.395" cy="9.418" rx="10.395" ry="9.418" transform="translate(36.554 34.477)"/>
  <path id="Path_54" data-name="Path 54" class="cls-4" d="M254.613,397.218c-.059-.05-.118-.1-.182-.15a7.225,7.225,0,0,0-5.4-1.522l-19.156,2.2c-3.648.409-6.277,3.371-5.934,6.687.262,2.676.686,6.055,1.363,9.49h30.262l1.113-11.718A5.841,5.841,0,0,0,254.613,397.218Z" transform="translate(-193.032 -339.947)"/>
  <path id="Path_55" data-name="Path 55" class="cls-3" d="M233.5,346.664h4.112l1.814-4.6.363,4.6h1.965l1.058-2.684.212,2.684h14.6c0-5.506-4.927-9.969-11-9.969H244.5C238.426,336.695,233.5,341.158,233.5,346.664Z" transform="translate(-198.56 -303.694)"/>
  <path id="Path_56" data-name="Path 56" class="cls-1" d="M648.211,341.213v-85.1a5.794,5.794,0,0,1,6.051-5.482H811.9a5.71,5.71,0,0,1,5.963,5.4v85.183c0,3.916-3.508,7.089-7.83,7.094H656.041C651.719,348.3,648.216,345.129,648.211,341.213Z" transform="translate(-437.745 -250.629)"/>
  <path id="Path_57" data-name="Path 57" class="cls-2" d="M648.211,341.213v-85.1a5.794,5.794,0,0,1,6.051-5.482H811.9a5.71,5.71,0,0,1,5.963,5.4v85.183c0,3.916-3.508,7.089-7.83,7.094H656.041C651.719,348.3,648.216,345.129,648.211,341.213Zm6.051-89.051a4.173,4.173,0,0,0-4.358,3.948v85.1a5.877,5.877,0,0,0,6.137,5.56H810.036a5.877,5.877,0,0,0,6.137-5.56V256.031a4.089,4.089,0,0,0-4.27-3.868Z" transform="translate(-437.745 -250.629)"/>
  <path id="Path_58" data-name="Path 58" class="cls-2" d="M871.938,357.2V311.093a4.458,4.458,0,0,1,4.656-4.218h46.143a4.458,4.458,0,0,1,4.656,4.218V357.2a3.452,3.452,0,0,1-.04.551,4.534,4.534,0,0,1-4.616,3.667H876.594a4.458,4.458,0,0,1-4.656-4.218Zm4.656-48.026a2.026,2.026,0,0,0-2.116,1.917V357.2a2.026,2.026,0,0,0,2.116,1.917h46.143a2.062,2.062,0,0,0,2.1-1.681,1.453,1.453,0,0,0,.016-.236V311.093a2.026,2.026,0,0,0-2.116-1.917Z" transform="translate(-566.779 -285.308)"/>
  <path id="Path_59" data-name="Path 59" class="cls-2" d="M694.3,397.093a3.242,3.242,0,0,1,3.386-3.068h55.869a3.082,3.082,0,1,1,0,6.135H697.688a3.242,3.242,0,0,1-3.386-3.068Z" transform="translate(-464.328 -339.041)"/>
  <path id="Path_60" data-name="Path 60" class="cls-2" d="M694.3,363.093a3.242,3.242,0,0,1,3.386-3.068h30.474a3.082,3.082,0,1,1,0,6.135H697.688A3.242,3.242,0,0,1,694.3,363.093Z" transform="translate(-464.328 -318.078)"/>
  <path id="Path_61" data-name="Path 61" class="cls-3" d="M908.422,336.335c2.967,5.285,5.306,10.736,11.851,10.736s11.851-4.807,11.851-10.736S926.818,325.6,920.273,325.6C913.622,325.523,902.9,326.5,908.422,336.335Z" transform="translate(-586.94 -296.85)"/>
  <ellipse id="Ellipse_9" data-name="Ellipse 9" class="cls-6" cx="10.395" cy="9.418" rx="10.395" ry="9.418" transform="translate(322.355 31.595)"/>
  <path id="Path_62" data-name="Path 62" class="cls-4" d="M928.344,393.946a17.567,17.567,0,0,0-2.18-1.825,18.939,18.939,0,0,0-12.016-3.374q-.26.011-.521.034a18.237,18.237,0,0,0-12.765,6.38,15.061,15.061,0,0,0-3.183,13.094c.114.479.216.962.313,1.446h34.461l.4-2.416A15.161,15.161,0,0,0,928.344,393.946Z" transform="translate(-581.4 -335.767)"/>
  <path id="Path_63" data-name="Path 63" class="cls-4" d="M966.881,401.654a5.893,5.893,0,0,0-5.9-4.525c-.055,0-.114,0-.169,0a6.661,6.661,0,0,0-1.392.176,5.97,5.97,0,0,0-3.662,2.54,5,5,0,0,0-.6,4.143l3.255,10.9h10.954Z" transform="translate(-614.66 -340.955)"/>
  <path id="Path_64" data-name="Path 64" class="cls-4" d="M903.053,396.725a5.6,5.6,0,0,0-1.731-1.871,6.061,6.061,0,0,0-1.7-.805,6.321,6.321,0,0,0-7.581,3.359l-5.959,15.411h11.309l5.769-11.335A4.95,4.95,0,0,0,903.053,396.725Z" transform="translate(-574.936 -338.883)"/>
  <path id="Path_65" data-name="Path 65" class="cls-3" d="M911.064,335.6a15.187,15.187,0,0,0,8.08,2.262,9.178,9.178,0,0,1-3.434,1.28,31.41,31.41,0,0,0,11.645.059,8.077,8.077,0,0,0,2.438-.759,2.84,2.84,0,0,0,1.5-1.823c.256-1.322-.882-2.524-2.064-3.333a16.5,16.5,0,0,0-12.792-2.316,7.215,7.215,0,0,0-3.789,1.94,2.9,2.9,0,0,0-.319,3.713Z" transform="translate(-589.345 -299.908)"/>
  <path id="Path_66" data-name="Path 66" class="cls-7" d="M561.406,492.307H407.411c-4.322,0-7.825-3.178-7.83-7.094V400.031a5.71,5.71,0,0,1,5.963-5.4H563.185a5.794,5.794,0,0,1,6.051,5.482v85.1C569.231,489.129,565.729,492.3,561.406,492.307Z" transform="translate(-294.348 -339.413)"/>
  <path id="Path_67" data-name="Path 67" class="cls-4" d="M561.406,492.307H407.411c-4.322,0-7.825-3.178-7.83-7.094V400.031a5.71,5.71,0,0,1,5.963-5.4H563.185a5.794,5.794,0,0,1,6.051,5.482v85.1C569.231,489.129,565.729,492.3,561.406,492.307ZM405.544,396.162a4.089,4.089,0,0,0-4.27,3.868v85.183a5.877,5.877,0,0,0,6.137,5.56H561.406a5.877,5.877,0,0,0,6.137-5.56v-85.1a4.173,4.173,0,0,0-4.358-3.948Z" transform="translate(-294.348 -339.413)"/>
  <path id="Path_68" data-name="Path 68" class="cls-2" d="M496.471,505.419H450.328a4.534,4.534,0,0,1-4.616-3.667,3.479,3.479,0,0,1-.04-.551V455.093a4.458,4.458,0,0,1,4.656-4.218h46.143a4.458,4.458,0,0,1,4.656,4.218V501.2A4.458,4.458,0,0,1,496.471,505.419Zm-46.143-52.244a2.027,2.027,0,0,0-2.116,1.917V501.2a1.487,1.487,0,0,0,.016.236,2.062,2.062,0,0,0,2.1,1.681h46.143a2.026,2.026,0,0,0,2.116-1.917V455.093a2.026,2.026,0,0,0-2.116-1.917Z" transform="translate(-320.931 -374.092)"/>
  <path id="Path_69" data-name="Path 69" class="cls-3" d="M482.216,470.585a13.465,13.465,0,0,0-9.748-.5c-3.056,1.176-5.14,4.192-4.152,6.86.448,1.21,1.469,2.4,1.071,3.622a3.988,3.988,0,0,1-2.422,2,9.279,9.279,0,0,0-2.954,1.557,1.643,1.643,0,0,0,.031,2.6c.312.19.7.281,1,.481a1.363,1.363,0,0,1,.493,1.619,3.469,3.469,0,0,1-1.207,1.438c-1.075.84-2.5,1.8-2.162,2.994a2.241,2.241,0,0,0,1.565,1.326,8.533,8.533,0,0,0,2.3.275l31.73.905a13.252,13.252,0,0,0,3.133-.159,3.742,3.742,0,0,0,2.46-1.5,2.891,2.891,0,0,0-.542-3.225,32.109,32.109,0,0,0-2.69-2.576,3.908,3.908,0,0,1-1.441-3.093,7.569,7.569,0,0,1,1.254-2.506,2.3,2.3,0,0,0,.135-2.6c-.862-1.065-2.932-.968-3.912-1.96-.74-.749-.6-1.827-.67-2.792a6.866,6.866,0,0,0-4.478-5.534,9.625,9.625,0,0,0-8.022.495Z" transform="translate(-330.418 -385.373)"/>
  <ellipse id="Ellipse_10" data-name="Ellipse 10" class="cls-6" cx="10.395" cy="9.418" rx="10.395" ry="9.418" transform="translate(142.577 91.334)"/>
  <path id="Path_70" data-name="Path 70" class="cls-4" d="M503.71,554.277a9.054,9.054,0,0,0-5.367-8.014c-.131-.065-.267-.123-.4-.18a10.842,10.842,0,0,0-3.729-.859l-9.9-.5a10.941,10.941,0,0,0-4.106.571q-.478.161-.935.368a10.011,10.011,0,0,0-2.59,1.668,8.689,8.689,0,0,0-2.988,6.879l.178,3.8,1.244,2.926h27.668a6.872,6.872,0,0,0,.889-1.219A5.593,5.593,0,0,0,503.71,554.277Z" transform="translate(-337.089 -431.945)"/>
  <path id="Path_71" data-name="Path 71" class="cls-4" d="M527.356,551.431a5.6,5.6,0,0,0-2.049-2.2,6.455,6.455,0,0,0-2.121-.836,6.811,6.811,0,0,0-.922-.119,6.558,6.558,0,0,0-1.82.142,5.929,5.929,0,0,0-4.054,3.071,5.014,5.014,0,0,0,.164,4.785l3.805,6.526.19.326h12.778Z" transform="translate(-361.412 -434.138)"/>
  <path id="Path_72" data-name="Path 72" class="cls-4" d="M478.331,546.694a6.581,6.581,0,0,0-3.4-.564,5.844,5.844,0,0,0-5.231,4.329l-2.578,11.331H477.2l1.883-.7,2.345-8.152A5.324,5.324,0,0,0,478.331,546.694Z" transform="translate(-333.301 -432.802)"/>
  <path id="Path_73" data-name="Path 73" class="cls-3" d="M483.713,490.917c3.283-.239,6.009-3.21,5.667-6.178a5.157,5.157,0,0,0,4.716,5.079c1.506.15,3.157-.262,4.468.426,1.452.762,1.916,2.613,3.429,3.272a3.38,3.38,0,0,0,4.039-1.547,5.35,5.35,0,0,0,.066-4.3,12.93,12.93,0,0,0-9.6-8.2,14.349,14.349,0,0,0-12.7,3.228,7.558,7.558,0,0,0-2.654,4.627,4.447,4.447,0,0,0,2.478,4.477Z" transform="translate(-341.376 -391.505)"/>
  <path id="Path_74" data-name="Path 74" class="cls-2" d="M665.583,544.16H609.714a3.082,3.082,0,1,1,0-6.135h55.869a3.082,3.082,0,1,1,0,6.135Z" transform="translate(-413.589 -427.826)"/>
  <path id="Path_75" data-name="Path 75" class="cls-1" d="M640.188,510.16H609.714a3.082,3.082,0,1,1,0-6.135h30.474a3.082,3.082,0,1,1,0,6.135Z" transform="translate(-413.589 -406.862)"/>
  <path id="Path_76" data-name="Path 76" class="cls-1" d="M709.747,578.449c-6.166,0-11.165,4.528-11.165,10.114s5,10.114,11.165,10.114h0c6.166,0,11.164-4.528,11.164-10.114s-5-10.114-11.164-10.114Z" transform="translate(-466.797 -452.749)"/>
  <path id="Path_395" data-name="Path 395" class="cls-7" d="M716.416,601.308a1.449,1.449,0,0,1-.815-.245l-.015-.01-3.07-2.128a1.161,1.161,0,0,1-.253-1.733,1.461,1.461,0,0,1,1.913-.229l1.989,1.382,4.7-5.554a1.46,1.46,0,0,1,1.912-.229h0l-.029.037.03-.037a1.161,1.161,0,0,1,.252,1.733l-5.527,6.53a1.42,1.42,0,0,1-1.085.482Z" transform="translate(-474.524 -461.294)"/>
</svg>
