<svg xmlns="http://www.w3.org/2000/svg" xmlns:xlink="http://www.w3.org/1999/xlink" width="1415.513" height="1441" viewBox="0 0 1415.513 1441">
  <defs>
    <style>
      .cls-1, .cls-2 {
        fill: #f8f8f8;
        stroke: #707070;
      }

      .cls-2 {
        opacity: 0.9;
      }

      .cls-3 {
        filter: url(#Path_95);
      }

      .cls-4 {
        filter: url(#Subtraction_3);
      }
    </style>
    <filter id="Subtraction_3" x="0" y="696.246" width="1415.5" height="744.754" filterUnits="userSpaceOnUse">
      <feOffset dx="6" dy="9" input="SourceAlpha"/>
      <feGaussianBlur stdDeviation="6" result="blur"/>
      <feFlood flood-opacity="0.161"/>
      <feComposite operator="in" in2="blur"/>
      <feComposite in="SourceGraphic"/>
    </filter>
    <filter id="Path_95" x="0" y="0" width="1415.512" height="792.612" filterUnits="userSpaceOnUse">
      <feOffset dx="6" dy="9" input="SourceAlpha"/>
      <feGaussianBlur stdDeviation="6" result="blur-2"/>
      <feFlood flood-opacity="0.161"/>
      <feComposite operator="in" in2="blur-2"/>
      <feComposite in="SourceGraphic"/>
    </filter>
  </defs>
  <g id="Component_17_1" data-name="Component 17 – 1" transform="translate(12.5 9.5)">
    <g class="cls-4" transform="matrix(1, 0, 0, 1, -12.5, -9.5)">
      <path id="Subtraction_3-2" data-name="Subtraction 3" class="cls-1" d="M1162.5,5058.3H-216v-653.96c.958-.572,2-1.2,3.4-2.041a442.9,442.9,0,0,1,94.551-37.905,390.741,390.741,0,0,1,101.869-13.848,345.608,345.608,0,0,1,141.9,29.983,355.964,355.964,0,0,1,34.542,17.778,375.988,375.988,0,0,1,33.754,22.327,407.328,407.328,0,0,1,32.759,27.1c10.8,9.917,21.421,20.712,31.557,32.084C414.1,4654.566,538.189,4760.006,660.686,4821.7c15.129,7.618,30.557,14.72,45.855,21.106,15.121,6.312,30.612,12.135,46.043,17.308,15.173,5.09,30.846,9.738,46.582,13.816,15.4,3.99,31.378,7.564,47.476,10.623,59.749,11.355,125.171,16.644,205.886,16.644,21.579,0,41.787-.447,60.061-1.328,18.254-.88,35.046-2.217,49.909-3.972V5058.3Z" transform="translate(228.5 -3644.8)"/>
    </g>
    <g id="Component_16_1" data-name="Component 16 – 1" transform="translate(0)">
      <g class="cls-3" transform="matrix(1, 0, 0, 1, -12.5, -9.5)">
        <path id="Path_95-2" data-name="Path 95" class="cls-2" d="M216-3440s60.284-260.13,711.354-189.291c434.264,47.249,586.025-220.654,639.061-404.725C1592.717-4125.3,1594.5-4196,1594.5-4196H216Z" transform="translate(-203.5 4205.5)"/>
      </g>
    </g>
  </g>
</svg>
