<svg id="Capa_1" enable-background="new 0 0 512 512" height="512" viewBox="0 0 512 512" width="512" xmlns="http://www.w3.org/2000/svg"><g><path d="m150.269 310.513-14.269-9.513h-60c-8.28 0-15 6.72-15 15v105l9.505 15.5h79.764z" fill="#50dbc1"/><path d="m436 301c-31.074 0-235.219 0-270 0l-15 10-.731-.487v125.987h-79.764l.495.807-10 13.693v46c0 8.28 6.72 15 15 15h270l15-10c0-5.236 0-69.663 0-124.781h80l10-16.219v-45c0-8.28-6.72-15-15-15z" fill="#0abf9c"/><path d="m361 377.219v124.781l15 10h60c8.28 0 15-6.72 15-15v-106l-10-13.781z" fill="#008e73"/><g><path d="m451 316v45l-10 16.22h-80v124.78l-15 10h-90v-211h180c8.28 0 15 6.72 15 15z" fill="#00a585"/></g><path d="m451 361v30h-75v121h-30v-61h-285v-30h75v-120h30v120h180v-45c0-8.28 6.72-15 15-15z" fill="#f5f2f1"/><path d="m451 361v30h-75v121h-30v-61h-90v-30h90v-45c0-8.28 6.72-15 15-15z" fill="#e8e1de"/><path d="m256.512 0c-.401 0-.807.001-1.208.004-89.324.633-162.477 72.761-164.27 162.103-2.598 129.513 105.747 121.235 150.543 278.014 4.127 14.446 24.711 14.47 28.846 0 44.847-156.951 151.577-146.209 151.577-274.621 0-91.417-73.972-165.5-165.488-165.5z" fill="#f47160"/><path d="m422 165.5c0 128.41-106.73 117.67-151.58 274.62-2.06 7.23-8.24 10.85-14.42 10.85v-450.97h.51c91.52 0 165.49 74.08 165.49 165.5z" fill="#fc5832"/><path d="m376 166c0 32.584-13.063 62.189-34.231 83.84l-170.57.971c-21.733-21.729-35.199-51.729-35.199-84.811 0-66.17 53.83-120 120-120s120 53.83 120 120z" fill="#f5f2f1"/><path d="m376 166c0 32.58-13.06 62.19-34.23 83.84-98.369.562-84.352.482-85.77.49v-204.33c66.17 0 120 53.83 120 120z" fill="#e8e1de"/><circle cx="256" cy="146" fill="#d69a8b" r="45"/><path d="m301 146c0 24.797-20.174 45-45 45v-90c24.81 0 45 20.19 45 45z" fill="#c28678"/><path d="m341.769 249.84c-.933.64-31.507 36.16-85.769 36.16-33.46 0-63.76-13.76-85.53-35.93 13.02-34.6 46.42-59.22 85.57-59.22 38.93 0 72.549 24.7 85.729 58.99z" fill="#3bc9ea"/><path d="m341.77 249.84c-.93.64-31.46 36.11-85.65 36.16v-95.15c38.9.03 72.48 24.72 85.65 58.99z" fill="#13b8e5"/></g></svg>