<svg xmlns="http://www.w3.org/2000/svg" width="94.374" height="877.055" viewBox="0 0 94.374 877.055">
  <g id="Component_8_1" data-name="Component 8 – 1" transform="translate(0.502 0.5)">
    <path id="Subtraction_5" data-name="Subtraction 5" d="M-17.1,876.055h-.01a27.55,27.55,0,0,1-10.714-1.816,12.6,12.6,0,0,1-6.555-5.921c-1.476-2.913-1.945-6.7-1.393-11.256a65.329,65.329,0,0,1,5.169-17.245,193.642,193.642,0,0,1,12.786-24.027c5.752-9.4,12.972-20.031,21.461-31.606a170.466,170.466,0,0,0,11.3-17.646,195.47,195.47,0,0,0,9.374-19.28c2.771-6.577,5.32-13.573,7.574-20.794,2.2-7.044,4.187-14.509,5.906-22.19a379.325,379.325,0,0,0,7.324-48.085l.008-.094L45.14,656v201.92C17.54,869.951-3.4,876.052-17.1,876.055Zm62.244-332.4h0c-3.721-55.381-11.656-114.107-19.33-170.9l-.005-.038,0-.018c-5.256-38.893-10.69-79.11-14.523-116.746-2.059-20.22-3.514-38.191-4.449-54.94-1.048-18.772-1.421-35.563-1.142-51.331a419.661,419.661,0,0,1,3.237-46.734c.973-7.424,2.183-14.6,3.6-21.335,1.455-6.93,3.168-13.6,5.093-19.816a173.092,173.092,0,0,1,6.725-18.176,139.235,139.235,0,0,1,8.49-16.409,117.268,117.268,0,0,1,10.39-14.521c.62-.738,1.267-1.486,1.922-2.223ZM56.665.683H55.056l.255-.22L55.64.183c.043-.121.112-.183.205-.183.177,0,.452.229.818.681Z" transform="translate(36 0)" fill="#0956c6" stroke="#707070" stroke-width="1"/>
  </g>
</svg>
