<svg xmlns="http://www.w3.org/2000/svg" width="408.337" height="1035.811" viewBox="0 0 408.337 1035.811">
    <path fill="#0665ae" stroke="#707070" d="M371.331 1034.183l-29.059-23.5h28.752l.309 23.5zm-388.44-158.129h-.01a27.561 27.561 0 0 1-10.714-1.816 12.608 12.608 0 0 1-6.554-5.921c-1.477-2.914-1.945-6.7-1.393-11.256a65.311 65.311 0 0 1 5.168-17.245 193.813 193.813 0 0 1 12.786-24.028c5.755-9.4 12.976-20.035 21.461-31.606a170.308 170.308 0 0 0 11.3-17.646 195.367 195.367 0 0 0 9.375-19.28c2.769-6.57 5.317-13.566 7.575-20.794 2.2-7.039 4.186-14.505 5.906-22.19a379.423 379.423 0 0 0 7.324-48.086c1.466-16.064 2.208-33.637 2.207-52.23-.006-71.979-10.946-152.942-21.526-231.24C20.54 333.8 15.1 293.563 11.273 255.953c-2.059-20.221-3.514-38.192-4.449-54.94-1.047-18.764-1.421-35.554-1.142-51.33a419.7 419.7 0 0 1 3.238-46.735c.974-7.429 2.184-14.608 3.6-21.336 1.454-6.929 3.168-13.6 5.093-19.817a172.876 172.876 0 0 1 6.724-18.175 139.171 139.171 0 0 1 8.49-16.409 117.3 117.3 0 0 1 10.386-14.52A105.979 105.979 0 0 1 55.635.183c.044-.122.113-.183.205-.183.86 0 3.926 5.295 9.36 16.187 4.866 9.746 10.917 22.5 17.323 35.993l.944 1.989q4.432 9.337 8.665 18.187V834.97c-28.743 15.342-81.161 41.078-109.241 41.084z" transform="translate(36.507 .5)"/>
</svg>
