<svg xmlns="http://www.w3.org/2000/svg" width="85.594" height="845.669" viewBox="0 0 85.594 845.669">
    <path fill="#0665ae" stroke="#094fb4" d="M239.5 844.186V0a185.657 185.657 0 0 1 19.783 25.268A302.512 302.512 0 0 1 276.438 55a509.618 509.618 0 0 1 26.41 63.21c7.281 20.967 12.644 39.9 15.861 52.093 3.445 13.054 5.218 21.313 5.292 21.658h-.01a23 23 0 0 0-2.541-.117c-7.033 0-25.014 2.11-40.059 21.651-14.128 18.35-21.812 47-22.84 85.163C257.22 348 267.128 413.04 288 491.965a449.8 449.8 0 0 1 10.234 50 440.344 440.344 0 0 1 4.335 48.609 445.749 445.749 0 0 1-.943 47.062c-1.1 15.017-2.981 30.278-5.6 45.356-2.5 14.414-5.744 29.047-9.633 43.492-3.7 13.757-8.093 27.71-13.046 41.47-4.7 13.061-10.032 26.279-15.838 39.288-5.49 12.3-11.548 24.727-18.006 36.943z" transform="translate(-239 1.253)"/>
</svg>
