<svg xmlns="http://www.w3.org/2000/svg" width="62.868" height="845.96" viewBox="0 0 62.868 845.96">
  <defs>
    <style>
      .cls-1 {
        fill: #0956c6;
        stroke: #094fb4;
      }
    </style>
  </defs>
  <g id="Component_16_1" data-name="Component 16 – 1" transform="translate(0.5 1.597)">
    <path id="Subtraction_3" data-name="Subtraction 3" class="cls-1" d="M0,844.186V0A189.313,189.313,0,0,1,14.47,25.268C18.74,34.09,22.962,44.094,27.017,55a625.135,625.135,0,0,1,19.317,63.21c5.326,20.967,9.248,39.9,11.6,52.093,2.52,13.054,3.817,21.313,3.871,21.658H61.8a12.359,12.359,0,0,0-1.859-.117c-5.144,0-18.3,2.11-29.3,21.651-10.333,18.35-15.954,47-16.706,85.163-.973,49.342,6.274,114.379,21.54,193.3,3.191,16.5,5.71,33.322,7.485,50,1.71,16.055,2.777,32.409,3.171,48.609.378,15.557.146,31.391-.69,47.062-.8,15.017-2.18,30.278-4.1,45.356-1.831,14.414-4.2,29.047-7.046,43.492-2.709,13.757-5.92,27.71-9.542,41.47-3.44,13.061-7.337,26.279-11.584,39.288C9.156,819.536,4.725,831.966,0,844.182Z"/>
  </g>
</svg>
