<svg xmlns="http://www.w3.org/2000/svg" width="69.252" height="877.055" viewBox="0 0 69.252 877.055">
  <defs>
    <style>
      .cls-1 {
        fill: #0956c6;
        stroke: #707070;
      }
    </style>
  </defs>
  <g id="Component_17_1" data-name="Component 17 – 1" transform="translate(0.501 0.5)">
    <path id="Subtraction_5" data-name="Subtraction 5" class="cls-1" d="M13.821,876.055h-.007a15.429,15.429,0,0,1-7.836-1.816,11.044,11.044,0,0,1-4.794-5.921A26.248,26.248,0,0,1,.164,857.061a84.207,84.207,0,0,1,3.78-17.245A225.223,225.223,0,0,1,13.3,815.789c4.207-9.4,9.488-20.031,15.7-31.606a187.312,187.312,0,0,0,8.268-17.646c2.476-6.065,4.783-12.552,6.857-19.28,2.027-6.577,3.891-13.573,5.54-20.794,1.609-7.044,3.062-14.509,4.32-22.19,2.405-14.688,4.208-30.867,5.357-48.085l.006-.094.007-.094v201.92C39.16,869.951,23.843,876.052,13.821,876.055Zm45.527-332.4h0c-2.721-55.381-8.525-114.107-14.138-170.9l0-.038,0-.018c-3.844-38.893-7.819-79.11-10.622-116.746-1.506-20.22-2.57-38.191-3.254-54.94-.766-18.772-1.039-35.563-.835-51.331.219-16.912,1.015-32.636,2.368-46.734.712-7.424,1.6-14.6,2.63-21.335,1.064-6.93,2.317-13.6,3.725-19.816,1.446-6.386,3.1-12.5,4.919-18.176a162.915,162.915,0,0,1,6.21-16.409,123.91,123.91,0,0,1,7.6-14.521c.454-.738.927-1.486,1.406-2.223ZM67.777.683H66.6l.186-.22.241-.281c.031-.121.082-.183.15-.183.13,0,.331.229.6.681Z"/>
  </g>
</svg>
