<svg xmlns="http://www.w3.org/2000/svg" xmlns:xlink="http://www.w3.org/1999/xlink" version="1.1" x="0px" y="0px" viewBox="0 0 50 62.5" style="enable-background:new 0 0 50 50;" xml:space="preserve"><g><path d="M32.6,39.4c0.2,0.2,0.5,0.3,0.7,0.3c0.3,0,0.5-0.1,0.7-0.3l7.2-7.2c0.4-0.4,0.4-1,0-1.4s-1-0.4-1.4,0l-6.5,6.5l-2.9-2.9   c-0.4-0.4-1-0.4-1.4,0c-0.4,0.4-0.4,1,0,1.4L32.6,39.4z"/><path d="M31,9.9C31,4.6,27.4,1,22.2,1c-5.3,0-8.8,3.6-8.8,8.9c0,5.3,3.6,11.2,8.8,11.2S31,15.2,31,9.9z M15.4,9.9   C15.4,5.7,18,3,22.2,3S29,5.7,29,9.9c0,4.8-3.2,9.2-6.8,9.2S15.4,14.8,15.4,9.9z"/><path d="M5,41.7L5,41.7C5,41.7,5,41.7,5,41.7L5,41.7C5,41.7,5,41.7,5,41.7C5,41.7,5,41.7,5,41.7l18,0c2.4,4.3,6.9,7.3,12.2,7.3   C42.8,49,49,42.8,49,35.1s-6.2-13.9-13.9-13.9c-3.2,0-6.2,1.1-8.6,3c-1.1-0.1-2.2-0.2-3.5-0.2c-1.6,0-3.2,0-4.7,0.1   c-4.1,0.3-7.6,1.2-10.3,2.8c-3.8,2.1-6.1,5.3-7,9.6c-0.3,1.3,0.1,2.7,0.9,3.7C2.7,41.2,3.8,41.7,5,41.7z M47,35.1   C47,41.7,41.7,47,35.1,47s-11.9-5.3-11.9-11.9s5.3-11.9,11.9-11.9S47,28.6,47,35.1z M3.1,37C3.1,37,3.1,37,3.1,37   c0.8-3.9,2.9-6.4,5.5-8c3.4-2.1,7.8-2.7,11.8-2.9l0,0c0.8,0,1.7,0,2.6,0c0.5,0,1.1,0,1.6,0.1c-2.1,2.4-3.3,5.6-3.3,9   c0,1.6,0.3,3.2,0.8,4.6H5c0,0,0,0,0,0c-0.5,0-1.1-0.2-1.5-0.7C3.1,38.5,2.9,37.7,3.1,37z"/></g><text x="0" y="65" fill="#000000" font-size="5px" font-weight="bold" font-family="'Helvetica Neue', Helvetica, Arial-Unicode, Arial, Sans-serif">Created by Vectors Point</text><text x="0" y="70" fill="#000000" font-size="5px" font-weight="bold" font-family="'Helvetica Neue', Helvetica, Arial-Unicode, Arial, Sans-serif">from the Noun Project</text></svg>