<svg id="Layer_1" data-name="Layer 1" xmlns="http://www.w3.org/2000/svg" viewBox="0 0 1644.44 424.96"><defs><style>.cls-1{fill:#0446ba;}</style></defs><path class="cls-1" d="M323.52,789.78h57.24V1111.9H323.52v-37.75c-28.62,24.36-66.37,37.75-103.52,37.75-88.9.61-162-72.46-161.37-161.36C58,862.24,131.1,789.17,220,789.78c37.15,0,74.9,13.4,103.52,37.76Zm0,160.76C323.52,893.91,276.63,847,220,847c-57.24,0-104.13,46.89-104.13,103.52,0,57.24,46.89,104.13,104.13,104.13C276.63,1054.67,323.52,1007.78,323.52,950.54Z" transform="translate(-58.63 -686.95)"/><path class="cls-1" d="M417.88,789.78h57.25V917.66l.6,63.93c.61,39.58,32.88,72.47,73.07,72.47s74.9-32.28,74.29-73.68V789.78h57.85V1111.9H623.09v-23.14a129.19,129.19,0,0,1-74.29,23.14c-70.63,0-129.7-57.84-130.92-129.09Z" transform="translate(-58.63 -686.95)"/><path class="cls-1" d="M950.5,1054.67v57.23H706.32L863.43,847H720.33V789.78H964.51l-157.1,264.89Z" transform="translate(-58.63 -686.95)"/><path class="cls-1" d="M1231.83,1054.67v57.23H987.65L1144.75,847H1001.66V789.78h244.18l-157.11,264.89Z" transform="translate(-58.63 -686.95)"/><path class="cls-1" d="M1278.64,723.48A36.64,36.64,0,0,1,1315.18,687c20.09,0,35.92,16.44,35.92,36.53a35.61,35.61,0,0,1-35.92,35.93C1295.08,759.41,1278.64,743.57,1278.64,723.48Zm7.3,66.3h57.86V1111.9h-57.86Z" transform="translate(-58.63 -686.95)"/><path class="cls-1" d="M1703.07,950.54c.61,88.9-72.46,162-160.75,161.36-88.91.61-162-72.46-161.37-161.36-.61-88.3,72.46-161.37,161.37-160.76C1630.61,789.17,1703.68,862.24,1703.07,950.54Zm-57.24,0c0-56.63-46.88-103.52-103.51-103.52-57.24,0-104.14,46.89-104.14,103.52,0,57.24,46.9,104.13,104.14,104.13C1599,1054.67,1645.83,1007.78,1645.83,950.54Z" transform="translate(-58.63 -686.95)"/></svg>